<svg width="527" height="367" viewBox="0 0 527 367" fill="none" xmlns="http://www.w3.org/2000/svg">
<g filter="url(#filter0_d_2293_3751)">
<rect x="79.4141" y="12" width="393.574" height="98.9625" rx="24.8252" fill="#CCFB00"/>
<path d="M250.982 63.5613C250.982 72.4453 246.54 76.8873 237.656 76.8873H221.665V68.8917H237.656C241.21 68.8917 242.987 67.1149 242.987 63.5613H221.665V55.5657C221.665 46.6818 226.107 42.2398 234.991 42.2398H250.982V50.2354H234.991C231.437 50.2354 229.661 52.0121 229.661 55.5657H250.982V63.5613ZM264.308 55.5657H280.299V63.5613H264.308C264.308 67.1149 266.085 68.8917 269.639 68.8917H285.63V76.8873H269.639C260.755 76.8873 256.313 72.4453 256.313 63.5613H253.647V55.5657H256.313V50.2354H253.647V42.2398H285.63V50.2354H264.308V55.5657ZM320.277 42.2398V68.8917H322.943V76.8873H320.277C314.947 76.8873 312.282 74.2221 312.282 68.8917V50.262C301.639 50.6884 296.308 55.1127 296.291 63.5347V76.8873H288.295V42.2398H296.291V46.5307C300.2 43.6701 305.53 42.2398 312.282 42.2398H320.277ZM336.269 50.2354V76.8873H328.273V50.2354H325.608V42.2398H357.59V63.5613C357.59 72.4453 353.148 76.8873 344.264 76.8873H341.599V68.8917H344.264C347.818 68.8917 349.595 67.1149 349.595 63.5613V50.2354H336.269Z" fill="black"/>
<ellipse cx="146.578" cy="61.4857" rx="37.1445" ry="31.8578" fill="black"/>
<path fill-rule="evenodd" clip-rule="evenodd" d="M146.738 52.995C145.756 52.995 144.96 52.3122 144.96 51.4699C144.96 50.6276 145.756 49.9448 146.738 49.9448H159.778C160.76 49.9448 161.557 50.6276 161.557 51.4699V62.654C161.557 63.4963 160.76 64.1792 159.778 64.1792C158.796 64.1792 158 63.4963 158 62.654V55.1519L136.141 73.8998C135.447 74.4954 134.321 74.4954 133.626 73.8998C132.932 73.3042 132.932 72.3387 133.626 71.7431L155.485 52.995H146.738Z" fill="#CCFB00"/>
<rect width="477" height="118.494" rx="24.8252" transform="matrix(0.997931 0.0679112 -0.188276 0.979783 36.3096 97.4216)" fill="#FF7A00"/>
<path d="M167.844 154.477L166.831 159.651L180.013 160.529L181.026 155.355L167.844 154.477ZM175.857 168.115C175.182 171.565 176.602 173.407 180.117 173.641L185.39 173.992L183.871 181.753L178.598 181.402C169.81 180.817 166.26 176.212 167.948 167.588L165.312 167.413L162.779 180.349L154.87 179.822L157.402 166.886L154.766 166.711L156.285 158.949L158.922 159.125L161.454 146.189L190.455 148.12L187.922 161.056C186.91 166.23 183.767 168.642 178.494 168.291L175.857 168.115ZM201.105 161.933L216.923 162.987L215.404 170.748L199.585 169.695C198.91 173.145 200.33 174.986 203.845 175.22L219.664 176.274L218.144 184.035L202.326 182.982C193.537 182.397 189.988 177.792 191.676 169.168L189.039 168.993L190.559 161.231L193.195 161.407L194.208 156.232L191.572 156.057L193.091 148.295L224.728 150.402L223.209 158.163L202.118 156.759L201.105 161.933ZM249.573 159.919L236.391 159.041L235.885 161.628C233.859 171.977 238.698 177.541 250.404 178.321L253.937 178.556L252.418 186.317L248.885 186.082C231.906 184.952 224.936 176.625 227.975 161.102L228.482 158.514L225.845 158.339L227.365 150.577L259.002 152.684L256.469 165.62L248.56 165.093L249.573 159.919ZM269.652 166.498L285.47 167.551L283.951 175.312L268.132 174.259C267.457 177.709 268.877 179.551 272.392 179.785L288.211 180.838L286.691 188.599L270.873 187.546C262.084 186.961 258.535 182.356 260.223 173.732L257.586 173.557L259.106 165.795L261.742 165.971L262.755 160.797L260.119 160.621L261.638 152.859L293.275 154.966L291.756 162.727L270.665 161.323L269.652 166.498ZM295.912 155.141L303.821 155.668L298.756 181.54L301.393 181.716L299.873 189.477L297.237 189.302C291.964 188.951 289.834 186.188 290.847 181.013L295.912 155.141ZM332.822 157.599C338.095 157.95 340.225 160.713 339.212 165.887L334.147 191.759L324.919 191.145L312.847 164.132L309.094 156.019L318.4 156.639L328.562 179.357L331.302 165.361L328.666 165.185L330.185 157.423L332.822 157.599ZM351.381 171.939L367.199 172.993L365.68 180.754L349.861 179.701C349.186 183.151 350.606 184.992 354.121 185.226L369.94 186.28L368.42 194.041L352.602 192.988C343.814 192.403 340.264 187.798 341.952 179.174L339.316 178.999L340.835 171.237L343.471 171.413L344.484 166.238L341.848 166.063L343.367 158.301L375.005 160.408L373.485 168.169L352.394 166.765L351.381 171.939Z" fill="black"/>
<ellipse cx="34.5673" cy="33.9788" rx="34.5673" ry="33.9788" transform="matrix(0.998901 0.0631832 -0.20029 0.979073 59.9287 118.014)" fill="black"/>
<path fill-rule="evenodd" clip-rule="evenodd" d="M86.6179 163.764C87.5283 163.847 88.0988 164.624 87.8921 165.499C87.6855 166.374 86.78 167.017 85.8697 166.934L73.782 165.836C72.8716 165.753 72.3011 164.977 72.5078 164.102L75.2514 152.479C75.458 151.604 76.3635 150.961 77.2738 151.044C78.1841 151.127 78.7546 151.903 78.548 152.779L76.7076 160.575L101.569 142.933C102.359 142.372 103.403 142.467 103.901 143.144C104.398 143.822 104.161 144.825 103.371 145.386L78.5097 163.028L86.6179 163.764Z" fill="#FF7A00"/>
<rect width="333.024" height="121.087" rx="24.8252" transform="matrix(0.993037 -0.111553 0.273532 0.953884 71.4863 229.77)" fill="#FFF2E6"/>
<path d="M122.016 297.942C123.167 303.175 121.098 306.219 115.809 307.075L113.165 307.503L111.438 299.653L114.083 299.225L110.054 280.911L107.41 281.339L105.683 273.489L137.418 268.355L139.144 276.204L117.988 279.627L119.139 284.86L135.006 282.293L136.733 290.142L120.865 292.709L122.016 297.942ZM153.285 265.788L152.71 263.171L160.643 261.888L161.219 264.504L174.441 262.365L176.168 270.214L173.523 270.642L177.552 288.956L180.196 288.528L181.923 296.378L179.278 296.806C173.989 297.661 170.769 295.473 169.618 290.24L168.467 285.007L155.244 287.147L156.395 292.379C157.546 297.612 155.477 300.656 150.188 301.512L147.544 301.94L145.817 294.091L148.462 293.663L144.433 275.348L141.789 275.776L140.062 267.927L153.285 265.788ZM165.59 271.925L152.367 274.065L153.518 279.297L166.741 277.158L165.59 271.925ZM210.78 278.161C212.698 286.882 209.25 291.956 200.435 293.382L184.567 295.95L182.841 288.101L198.708 285.533C202.234 284.963 203.614 282.933 202.846 279.445L181.69 282.868L179.963 275.019C178.045 266.297 181.494 261.224 190.309 259.797L206.176 257.23L207.902 265.079L192.035 267.646C188.509 268.217 187.13 270.246 187.897 273.735L209.053 270.312L210.78 278.161ZM221.125 262.94L210.547 264.651L208.821 256.802L237.911 252.095L239.637 259.945L229.059 261.656L233.087 279.971L235.732 279.543L237.458 287.392L234.814 287.82C229.525 288.676 226.304 286.487 225.154 281.255L221.125 262.94Z" fill="black"/>
<ellipse cx="36.9754" cy="32.0539" rx="36.9754" ry="32.0539" transform="matrix(0.987162 -0.15972 0.214817 0.976654 283.112 225.819)" fill="black"/>
<g clip-path="url(#clip0_2293_3751)">
<path fill-rule="evenodd" clip-rule="evenodd" d="M325.104 234.763C325.823 234.844 326.386 235.334 326.471 235.952L327.753 245.31L338.184 243.263C338.754 243.152 339.349 243.318 339.733 243.696C340.117 244.074 340.227 244.602 340.019 245.071L330.548 266.449C330.292 267.029 329.61 267.386 328.892 267.317C328.173 267.249 327.6 266.772 327.498 266.158L325.944 256.819L315.264 258.914C314.69 259.027 314.091 258.857 313.707 258.474C313.324 258.09 313.221 257.555 313.439 257.086L323.425 235.607C323.694 235.029 324.385 234.681 325.104 234.763ZM317.502 255.687L326.916 253.84C327.348 253.755 327.802 253.829 328.167 254.045C328.532 254.26 328.776 254.597 328.838 254.973L329.768 260.558L336.005 246.48L326.739 248.298C326.3 248.384 325.839 248.306 325.472 248.083C325.104 247.861 324.864 247.515 324.811 247.131L324.053 241.596L317.502 255.687Z" fill="#FFF2E6"/>
</g>
</g>
<defs>
<filter id="filter0_d_2293_3751" x="0.23241" y="-7.62939e-06" width="525.857" height="366.667" filterUnits="userSpaceOnUse" color-interpolation-filters="sRGB">
<feFlood flood-opacity="0" result="BackgroundImageFix"/>
<feColorMatrix in="SourceAlpha" type="matrix" values="0 0 0 0 0 0 0 0 0 0 0 0 0 0 0 0 0 0 127 0" result="hardAlpha"/>
<feOffset dy="6"/>
<feGaussianBlur stdDeviation="9.00001"/>
<feComposite in2="hardAlpha" operator="out"/>
<feColorMatrix type="matrix" values="0 0 0 0 0 0 0 0 0 0 0 0 0 0 0 0 0 0 0.15 0"/>
<feBlend mode="normal" in2="BackgroundImageFix" result="effect1_dropShadow_2293_3751"/>
<feBlend mode="normal" in="SourceGraphic" in2="effect1_dropShadow_2293_3751" result="shape"/>
</filter>
<clipPath id="clip0_2293_3751">
<rect width="41.9807" height="36.5672" rx="18.2836" transform="matrix(0.981292 -0.192527 0.257708 0.966223 301.404 237.463)" fill="white"/>
</clipPath>
</defs>
</svg>
