<svg width="114" height="30" viewBox="0 0 114 30" fill="none" xmlns="http://www.w3.org/2000/svg">
<g clip-path="url(#clip0_2350_4284)">
<path d="M13.1547 29.584V19.9242H13.0655C12.8721 20.5637 12.5672 21.0545 12.1582 21.3966C11.7492 21.7386 11.1394 21.9394 10.3214 21.9989C8.23925 22.0807 6.35784 22.0807 4.68465 21.9989C3.20481 21.9394 2.08935 21.5081 1.3234 20.6975C0.564884 19.887 0.148446 18.8459 0.0666455 17.5594C-0.0300277 15.6333 -0.0300277 13.7445 0.0666455 11.8928C0.126137 10.6881 0.550012 9.63217 1.35314 8.73981C2.14884 7.84744 3.28661 7.39382 4.76645 7.39382H17.2893C17.3265 9.59499 17.3488 12.8819 17.3488 17.2619C17.3488 21.6643 17.3265 27.4052 17.2893 29.584H13.1473H13.1547ZM6.20911 18.8682H11.4369C12.0021 18.8682 12.4334 18.6674 12.7234 18.2658C13.0134 17.8643 13.1621 17.3363 13.1621 16.6744V10.5171H6.21655C4.93005 10.5171 4.29052 11.2682 4.29052 12.7629V16.615C4.29052 18.1171 4.93005 18.8607 6.21655 18.8607L6.20911 18.8682ZM25.1868 21.9915C23.707 21.9543 22.5915 21.523 21.833 20.6901C21.0745 19.8647 20.658 18.8236 20.5762 17.5817C20.4573 15.3656 20.4573 11.9672 20.5762 7.39382C25.1273 7.27483 29.4404 7.27483 33.5081 7.39382C35.0103 7.431 36.1481 7.86975 36.9363 8.71006C37.7246 9.55037 38.141 10.5915 38.1782 11.8333C38.2526 13.7594 38.2526 15.6482 38.1782 17.4999C38.1187 18.6451 37.7023 19.6787 36.9214 20.5786C36.1406 21.4858 35.0028 21.9543 33.5081 21.9915C30.7269 22.0881 27.9531 22.0881 25.1868 21.9915ZM26.6443 18.8979H32.0432C33.3445 18.8979 33.9989 18.1469 33.9989 16.6521V12.7703C33.9989 11.2533 33.3445 10.4948 32.0432 10.4948H24.7183V16.6521C24.7183 18.1543 25.3578 18.8979 26.6443 18.8979ZM41.5023 5.17777C41.4428 4.47875 41.413 3.74998 41.413 2.99147C41.413 2.19577 41.4428 1.46701 41.5023 0.805166H45.5328C45.5923 1.58599 45.622 2.31476 45.622 2.99147C45.622 3.69049 45.5923 4.41926 45.5328 5.17777H41.5023ZM41.532 21.9915C41.4725 20.3778 41.4428 17.9461 41.4428 14.6889C41.4428 11.4392 41.4725 9.00751 41.532 7.38638H45.5923C45.6295 9.00008 45.6518 11.4318 45.6518 14.6889C45.6518 17.9386 45.6295 20.3703 45.5923 21.9915H41.532ZM49.0948 21.9915C49.0353 20.3778 49.0056 17.9461 49.0056 14.6889C49.0056 11.4392 49.0353 9.00751 49.0948 7.38638H52.8576H57.4191L51.5559 8.48312C52.0467 7.13713 54.7465 7.44587 56.3007 7.38638C58.5167 7.28971 61.6995 7.28971 65.849 7.38638C65.9457 11.5136 65.9383 16.377 65.8193 21.984H61.6995V10.4799H55.0439C53.8169 10.4799 53.2072 11.1938 53.2072 12.6142V21.984H49.0874L49.0948 21.9915ZM69.2103 29.584C69.1508 27.4052 69.121 21.6568 69.121 17.2322C69.121 12.8521 69.1508 9.57268 69.2103 7.39382H72.9731H76.589L70.7694 8.48312C71.1412 7.15944 74.6686 7.47562 76.1261 7.39382C77.9778 7.29714 81.3985 7.29714 86.4032 7.39382C86.5222 12.22 86.5296 15.5887 86.433 17.4924C86.3586 18.66 85.9273 19.7011 85.1465 20.6157C84.3657 21.5304 83.2353 21.9915 81.7629 21.9915H73.3226V29.584H69.2028H69.2103ZM73.33 18.8384H80.3054C81.5919 18.8384 82.2314 18.0874 82.2314 16.5926V10.4874H75.0479C73.9026 10.4874 73.3226 11.2161 73.3226 12.6737V18.831L73.33 18.8384ZM93.2447 21.9915C91.0659 21.932 89.8165 20.8909 89.5042 18.8682C89.467 18.5559 89.4447 18.0725 89.4447 17.4255C89.4447 16.7711 89.467 16.2654 89.5042 15.8936C89.7347 13.8858 91.0435 12.8893 93.4158 12.8893H99.6028C100.964 12.8893 104.6 12.9528 105.009 13.9269L102.354 13.2865L102.347 12.5101C102.347 11.1864 101.685 10.5245 100.361 10.5245H95.4831C93.3637 10.5245 91.7723 10.4725 90.7238 10.3758V7.40125H101.64C103.098 7.40125 104.221 7.74333 105.009 8.43491C105.797 9.1265 106.244 10.1304 106.34 11.4541C106.437 13.5363 106.444 17.0537 106.37 21.9915H93.2298H93.2447ZM94.6205 18.9277L102.354 18.8979V17.0314C102.354 16.0795 101.878 15.6036 100.927 15.6036H94.7394C93.8991 15.6036 93.4827 16.02 93.4827 16.8604V17.6189C93.4827 18.4741 93.8619 18.9128 94.6205 18.9351V18.9277ZM109.887 21.9915C109.828 19.6341 109.798 16.1018 109.798 11.3946C109.798 6.68736 109.828 3.15507 109.887 0.797729H113.948C113.985 3.15507 114.007 6.68736 114.007 11.3946C114.007 16.1018 113.985 19.6416 113.948 21.9915H109.887Z" fill="#FAFFE6"/>
<path fill-rule="evenodd" clip-rule="evenodd" d="M18.7393 29.5839V26.4531L20.6207 25.3674L22.5021 24.2817V26.4531H63.9749V24.2817L65.8563 25.3674L67.7377 26.4531V29.5839H18.7393Z" fill="#FAFFE6"/>
</g>
<defs>
<clipPath id="clip0_2350_4284">
<rect width="114" height="28.7864" fill="white" transform="translate(0 0.797729)"/>
</clipPath>
</defs>
</svg>
